# xmcd
#
# Track frame offsets:
#	183
#	13788
#	25350
#	43733
#	58690
#	78810
#	92193
#	103683
#	117430
#	140370
#	152883
#	169658
#	182688
#	205603
#	215458
#	228238
#	247690
#	258868
#	269270
#	282495
#
# Disc length: 3904
#
# Revision: 5
# Processed by: cddbd v1.5.1PL0 Copyright (c) Steve Scherf et al.
# Submitted via: tcd 2.0b
# Normalized: r3:DSETVAR1,TDELIM( - ),TSWAP
#
DISCID=100f3e14
DTITLE=Various Artist - Davidoff Classic CD
DYEAR=1900
DGENRE=
TTITLE0=Ben E. King - Stand By Me
TTITLE1=Frank Sinatra - Dancing in the Dark
TTITLE2=Phil Collins - Deep Green
TTITLE3=Louis Armstrong - Blueberry Hill
TTITLE4=Nina Simone - My Baby Just Cares for Me
TTITLE5=Percy Sledge - When a Man Loves a Woman
TTITLE6=The Platters - Only You
TTITLE7=Marilyn Monroe - I Wanna Be Loved By You
TTITLE8=Joe Cocker - With a Little Help from My friends
TTITLE9=Tina Turner - Stand By Your Man
TTITLE10=Paul Young - Some Kind of Wonderful
TTITLE11=The Bee Gees - Spicks and Specks
TTITLE12=Gloria Gaynor - Never Can Say Goodbye
TTITLE13=The Champs - Tequila Juice
TTITLE14=Ray Charles - Unchain My Heart
TTITLE15=trini Lopez - La Bamba
TTITLE16=The Isley Brothers - Twist and Shout
TTITLE17=James Brown - I Feel Good
TTITLE18=Sam and Dave - Soul Man
TTITLE19=Chubby Checker - Let's Twist Again
EXTD=
EXTT0=
EXTT1=
EXTT2=
EXTT3=
EXTT4=
EXTT5=
EXTT6=
EXTT7=
EXTT8=
EXTT9=
EXTT10=
EXTT11=
EXTT12=
EXTT13=
EXTT14=
EXTT15=
EXTT16=
EXTT17=
EXTT18=
EXTT19=
PLAYORDER=
